<svg xmlns="http://www.w3.org/2000/svg" viewBox="0 0 100 100">
  <!-- Mirrors -->
  <rect x="20" y="15" width="12" height="8" rx="3" fill="#000" />
  <rect x="68" y="15" width="12" height="8" rx="3" fill="#000" />
  
  <!-- Stalks -->
  <path d="M 26 23 C 28 28 32 30 35 30" stroke="#000" stroke-width="3" fill="none" />
  <path d="M 74 23 C 72 28 68 30 65 30" stroke="#000" stroke-width="3" fill="none" />
  
  <!-- Grips -->
  <rect x="18" y="27" width="15" height="8" rx="2" fill="#000" />
  <rect x="67" y="27" width="15" height="8" rx="2" fill="#000" />
  
  <!-- Handlebar core -->
  <rect x="30" y="28" width="40" height="6" fill="#000" />
  
  <!-- Headlight housing -->
  <circle cx="50" cy="28" r="14" fill="#000" />
  <!-- Headlight glass -->
  <circle cx="50" cy="28" r="8" fill="#fff" />
  
  <!-- Front Fender / Body -->
  <path d="M 36 36 C 15 50 25 75 38 68 C 38 55 42 48 50 48 C 58 48 62 55 62 68 C 75 75 85 50 64 36 Z" fill="#000" />
  
  <!-- Front Tire -->
  <rect x="43" y="52" width="14" height="35" rx="5" fill="#000" />
</svg>